# xmcd
#
# Track frame offsets:
#	179
#	17737
#	29163
#	40890
#	52846
#	66209
#	81697
#	96373
#	110015
#	122851
#	134924
#
# Disc length: 1944 seconds
#
# Revision: 1
# Processed by: cddbd v1.5.2PL0 Copyright (c) Steve Scherf et al.
# Submitted via: audiograbber 1.83.01
#
DISCID=a807960b
DTITLE=Charley Pride - Did You Think To Pray (Remastered, Expanded)
DYEAR=1971
DGENRE=Gospel
TTITLE0=Did You Think To Pray
TTITLE1=I'll Fly Away
TTITLE2=Time Out For Jesus
TTITLE3=Angel Band
TTITLE4=Jesus, Don't Give Up On Me
TTITLE5=Let Me Live
TTITLE6=Whispering Hope
TTITLE7=This Highway Leads To Glory
TTITLE8=The Church In The Wildwood
TTITLE9=Lord, Build Me A Cabin In Glory
TTITLE10=Wings Of A Dove
EXTD=
EXTT0=
EXTT1=
EXTT2=
EXTT3=
EXTT4=
EXTT5=
EXTT6=
EXTT7=
EXTT8=
EXTT9=
EXTT10=
PLAYORDER=
